<?xml version="1.0" encoding="utf-8"?>
<!-- Generator: Adobe Illustrator 19.0.0, SVG Export Plug-In . SVG Version: 6.00 Build 0)  -->
<svg xmlns="http://www.w3.org/2000/svg" xmlns:xlink="http://www.w3.org/1999/xlink" version="1.1" id="Layer_1" x="0px" y="0px" viewBox="0 2 98 98" style="enable-background:new 0 2 98 98;" xml:space="preserve" width="512" height="512">
<style type="text/css">
	.st0{fill:url(#SVGID_1_);}
</style>
<linearGradient id="SVGID_1_" gradientUnits="userSpaceOnUse" x1="49" y1="20.5001" x2="49" y2="81.4999">
	<stop offset="0" style="stop-color:#00EFD1"/>
	<stop offset="1" style="stop-color:#00ACEA"/>
</linearGradient>
<path class="st0" d="M63.9,37.9h-42l10.9-12.4c1.1-1.2,1-3.1-0.3-4.2c-1.2-1.1-3.1-1-4.2,0.3L13,38.9c0,0.1-0.1,0.1-0.1,0.2  c-0.1,0.1-0.1,0.1-0.2,0.2c-0.1,0.1-0.1,0.2-0.1,0.3c0,0.1-0.1,0.1-0.1,0.2c0,0.1-0.1,0.2-0.1,0.3c0,0.1,0,0.1-0.1,0.2  c-0.1,0.4-0.1,0.8,0,1.1c0,0.1,0,0.1,0.1,0.2c0,0.1,0.1,0.2,0.1,0.3c0,0.1,0.1,0.1,0.1,0.2c0,0.1,0.1,0.2,0.1,0.3  c0,0.1,0.1,0.1,0.2,0.2c0,0.1,0.1,0.1,0.1,0.2l15.2,17.4c0.6,0.7,1.4,1,2.3,1c0.7,0,1.4-0.2,2-0.7c1.2-1.1,1.4-3,0.3-4.2L21.9,43.9  h42c8.7,0,15.8,7.1,15.8,15.8c0,8.7-7.1,15.8-15.8,15.8H19.3c-1.7,0-3,1.3-3,3s1.3,3,3,3h44.6c12,0,21.8-9.8,21.8-21.8  S75.9,37.9,63.9,37.9z"/>
</svg>
