<svg id="Layer_1"  xmlns="http://www.w3.org/2000/svg" xmlns:xlink="http://www.w3.org/1999/xlink" viewBox="0 0 682.85 509.62"><defs><linearGradient id="linear-gradient" x1="174.27" y1="171.9" x2="164.23" y2="352.31" gradientUnits="userSpaceOnUse"><stop offset="0.12" stop-color="#010101" stop-opacity="0"/><stop offset="0.95" stop-color="#010101"/></linearGradient><linearGradient id="linear-gradient-2" x1="289.85" y1="212.17" x2="306.43" y2="212.17" gradientTransform="translate(-147.19 58.69) rotate(-8.05)" gradientUnits="userSpaceOnUse"><stop offset="0" stop-color="#e5c6d6"/><stop offset="0.42" stop-color="#ead4d0"/><stop offset="1" stop-color="#f0e9cb"/></linearGradient><linearGradient id="linear-gradient-3" x1="176.41" y1="232.71" x2="181.67" y2="202.18" xlink:href="#linear-gradient"/><linearGradient id="linear-gradient-4" x1="155.95" y1="434" x2="179.21" y2="434" gradientTransform="matrix(1, 0, 0, 1, 0, 0)" xlink:href="#linear-gradient-2"/><linearGradient id="linear-gradient-5" x1="487.91" y1="433.67" x2="508.33" y2="433.67" gradientTransform="matrix(-1, 0, 0, 1, 694.76, 0)" xlink:href="#linear-gradient-2"/><linearGradient id="linear-gradient-6" x1="107.19" y1="295.48" x2="165.44" y2="295.48" gradientTransform="matrix(1, 0, 0, 1, 0, 0)" xlink:href="#linear-gradient-2"/><linearGradient id="linear-gradient-7" x1="190.11" y1="293.48" x2="255.39" y2="293.48" gradientTransform="matrix(1, 0, 0, 1, 0, 0)" xlink:href="#linear-gradient-2"/><linearGradient id="linear-gradient-8" x1="278.1" y1="461.93" x2="292.22" y2="461.93" gradientTransform="matrix(1, 0, 0, 1, 0, 0)" xlink:href="#linear-gradient-2"/><linearGradient id="linear-gradient-9" x1="378.28" y1="457.53" x2="392.39" y2="457.53" gradientTransform="translate(-130.72 51.82) rotate(-6.84)" xlink:href="#linear-gradient-2"/><linearGradient id="linear-gradient-10" x1="303.23" y1="393.48" x2="326.07" y2="393.48" gradientTransform="matrix(1, 0, 0, 1, 0, 0)" xlink:href="#linear-gradient-2"/><linearGradient id="linear-gradient-11" x1="346.41" y1="336.19" x2="350.76" y2="336.19" gradientTransform="matrix(1, 0, 0, 1, 0, 0)" xlink:href="#linear-gradient-2"/><linearGradient id="linear-gradient-12" x1="375.04" y1="333.2" x2="378.67" y2="333.2" gradientTransform="matrix(1, 0, 0, 1, 0, 0)" xlink:href="#linear-gradient-2"/><linearGradient id="linear-gradient-13" x1="344.45" y1="460.79" x2="359.97" y2="460.79" gradientTransform="matrix(1, 0, 0, 1, 0, 0)" xlink:href="#linear-gradient-2"/><linearGradient id="linear-gradient-14" x1="375.67" y1="458.78" x2="391.19" y2="458.78" gradientTransform="matrix(-1, 0, 0, 1, 763.94, 0)" xlink:href="#linear-gradient-2"/><linearGradient id="linear-gradient-15" x1="314.11" y1="397.89" x2="339.13" y2="397.89" gradientTransform="matrix(1, 0, 0, 1, 0, 0)" xlink:href="#linear-gradient-2"/><linearGradient id="linear-gradient-16" x1="358.51" y1="350.32" x2="370.6" y2="350.32" gradientTransform="matrix(1, 0, 0, 1, 0, 0)" xlink:href="#linear-gradient-2"/><linearGradient id="linear-gradient-17" x1="479.8" y1="223.52" x2="502.27" y2="223.52" gradientTransform="matrix(1, 0, 0, 1, 0, 0)" xlink:href="#linear-gradient-2"/><linearGradient id="linear-gradient-18" x1="491.09" y1="230.03" x2="493.15" y2="192.03" xlink:href="#linear-gradient"/><linearGradient id="linear-gradient-19" x1="486.11" y1="177.09" x2="495.68" y2="222.53" gradientTransform="matrix(1, 0, 0, 1, 0, 0)" xlink:href="#linear-gradient-2"/><linearGradient id="linear-gradient-20" x1="540.48" y1="353.43" x2="559.12" y2="353.43" gradientTransform="matrix(1, 0, 0, 1, 0, 0)" xlink:href="#linear-gradient-2"/><linearGradient id="linear-gradient-21" x1="347.94" y1="331.97" x2="376.42" y2="331.97" gradientTransform="matrix(1, 0, 0, 1, 0, 0)" xlink:href="#linear-gradient-2"/><linearGradient id="linear-gradient-22" x1="388.2" y1="346.85" x2="430.24" y2="346.85" gradientTransform="matrix(1, 0, 0, 1, 0, 0)" xlink:href="#linear-gradient-2"/><linearGradient id="linear-gradient-23" x1="418.11" y1="335.35" x2="433.56" y2="335.35" gradientTransform="matrix(1, 0, 0, 1, 0, 0)" xlink:href="#linear-gradient-2"/><linearGradient id="linear-gradient-24" x1="193.7" y1="365.03" x2="197.57" y2="365.03" gradientTransform="translate(136.58 -36.43) rotate(7)" xlink:href="#linear-gradient-2"/><linearGradient id="linear-gradient-25" x1="219.19" y1="362.37" x2="222.42" y2="362.37" gradientTransform="translate(136.58 -36.43) rotate(7)" xlink:href="#linear-gradient-2"/><linearGradient id="linear-gradient-26" x1="291.26" y1="363.4" x2="302.03" y2="363.4" gradientTransform="matrix(1, 0, 0, 1, 0, 0)" xlink:href="#linear-gradient-2"/><linearGradient id="linear-gradient-27" x1="294.79" y1="366.9" x2="302.1" y2="352.02" xlink:href="#linear-gradient"/><linearGradient id="linear-gradient-28" x1="195.06" y1="361.28" x2="220.42" y2="361.28" gradientTransform="translate(136.58 -36.43) rotate(7)" xlink:href="#linear-gradient-2"/><linearGradient id="linear-gradient-29" x1="248.13" y1="366.81" x2="281.6" y2="366.81" gradientTransform="matrix(1, 0, 0, 1, 0, 0)" xlink:href="#linear-gradient-2"/><linearGradient id="linear-gradient-30" x1="161.21" y1="204.34" x2="189.06" y2="204.34" gradientTransform="matrix(1, 0, 0, 1, 0, 0)" xlink:href="#linear-gradient-2"/></defs><title>family 2</title><path d="M661.93,436.53c-19.67,37.38-51.54,67.32-92.13,78.34-50.68,13.71-104.7-2.77-156.9,2.81-33,3.51-64.4,15.78-96.64,23.7-99,24.36-215.2,1.62-278.82-78A179,179,0,0,1,26.2,447.55C3,410.73-7.07,364.37,10.34,325.07c13.23-29.8,39.3-50.21,58.63-75.64C86.2,226.8,93.08,205,99.29,178c13.6-59,63.55-100.11,119.34-119.71,53.64-18.81,111.94-19.33,168.58-15,40.63,3,82,8.69,118.52,26.65,33.72,16.53,61.74,42.81,86.58,71C641.85,197,682,266,684.3,340.89A194.1,194.1,0,0,1,661.93,436.53Z" transform="translate(-1.54 -41.05)" fill="#fd9268" opacity="0.24" style="isolation:isolate"/><path d="M663.56,420.74c-.49,5.22-1,10.5-1.63,15.79-19.67,37.38-51.54,67.32-92.13,78.34-50.68,13.71-104.7-2.77-156.9,2.81-33,3.51-64.4,15.78-96.64,23.7-99,24.36-215.2,1.62-278.82-78A179,179,0,0,1,26.2,447.55c3.44-2.55,8.06-4.51,14-5.7,44.59-9,103.81,4.33,149.65,5q153.17,2.22,306.08-9.28C510.87,436.42,662.89,427.69,663.56,420.74Z" transform="translate(-1.54 -41.05)" fill="#fd9268" opacity="0.24" style="isolation:isolate"/><path d="M663.56,420.74c-.49,5.22-1,10.5-1.63,15.79-19.67,37.38-51.54,67.32-92.13,78.34-50.68,13.71-104.7-2.77-156.9,2.81-33,3.51-64.4,15.78-96.64,23.7-99,24.36-215.2,1.62-278.82-78A179,179,0,0,1,26.2,447.55c3.44-2.55,8.06-4.51,14-5.7,44.59-9,103.81,4.33,149.65,5q153.17,2.22,306.08-9.28C510.87,436.42,662.89,427.69,663.56,420.74Z" transform="translate(-1.54 -41.05)" fill="#fd9268" opacity="0.24" style="isolation:isolate"/><path d="M132.92,491.87c31.77,3.37,63.39-6.63,95.32-7.87,31.27-1.21,62.18,6,93.29,9.33,23.6,2.53,47.37,2.83,71.1,3.13l133.15,1.67c7.46.1,15.22.13,22-3.07s12.09-10.65,10.34-17.9c-64.21,3.5-128.58,1.35-192.69-2.94-32.55-2.18-65-4.92-97.54-7.75-28.46-2.48-58.69-8.2-87.26-5.31-22.15,2.24-47.11,14.28-66.71,23.93C118.74,489.84,126.29,491.17,132.92,491.87Z" transform="translate(-1.54 -41.05)" fill="#fd9268" opacity="0.55" style="isolation:isolate"/><path d="M190.72,182.49a19.85,19.85,0,0,0-7.93-6.28,23.75,23.75,0,0,0-20,0,20.56,20.56,0,0,0-11.46,16.14c-.21,2.34,0,4.69-.14,7-.55,8.12-5.53,15.24-7.54,23.13-1.13,4.42-1.32,9.08-2.79,13.41-1.11,3.3-3,6.52-2.71,10a12.82,12.82,0,0,0,2.18,5.69c4.42,6.91,13.22,11.57,21,8.95,2.13-.72,4.07-1.94,6.18-2.74,5.71-2.17,12.06-1.13,18.18-1.09a17.8,17.8,0,0,0,7.7-1.3,11.15,11.15,0,0,0,6.09-11.09,30.27,30.27,0,0,0-2.13-6.9,44.52,44.52,0,0,1-2.56-19.54c.31-3.36,1-6.69,1-10.06,0-4.46-3.12-7.8-2.46-11.87C194.07,191.15,193.62,186.52,190.72,182.49Z" transform="translate(-1.54 -41.05)" fill="#606161"/><path d="M190.9,182.39a20,20,0,0,0-7.92-6.27,23.77,23.77,0,0,0-20,0,20.53,20.53,0,0,0-11.45,16.14c-.22,2.34,0,4.69-.15,7-.54,8.12-5.53,15.24-7.54,23.12-1.13,4.43-1.32,9.09-2.78,13.42-1.12,3.29-3,6.52-2.71,10a12.58,12.58,0,0,0,2.18,5.7c4.41,6.9,13.21,11.57,21,9,2.13-.73,4.07-1.94,6.18-2.74,5.72-2.17,12.07-1.13,18.18-1.09a17.85,17.85,0,0,0,7.71-1.3,11.18,11.18,0,0,0,6.09-11.09,30.53,30.53,0,0,0-2.14-6.91,44.6,44.6,0,0,1-2.56-19.53c.32-3.36,1-6.69,1-10.06,0-4.46-3.12-7.8-2.46-11.88C194.25,191.06,193.81,186.43,190.9,182.39Z" transform="translate(-1.54 -41.05)" fill="#606161"/><path d="M151.71,230.54c1.16-2.94,3.07-5.56,4-8.58,1.14-3.69.73-7.66.87-11.52s1-8,4-10.5c2.34-1.92,5.52-2.41,8.54-2.62,4.15-.28,8.5-.12,12.16,1.84,5.79,3.1,8.54,10.06,8.9,16.62.2,3.55-.16,7.17.6,10.65a10.84,10.84,0,0,1,.51,3.93,7.09,7.09,0,0,1-1.81,3.33c-6.27,7.42-15.92,10.71-25.34,11.53-3,.26-9.45,1.36-12-.68C149,241.89,150.42,233.8,151.71,230.54Z" transform="translate(-1.54 -41.05)" fill="url(#linear-gradient)"/><path d="M172.13,227.21c.07-1.19-1.15-6.75-1.15-7.94,0-2.76,2.7-1.06,5.23-2.16s7.39-1.44,7.7,1.29c.77,6.86.2,9.34,1.65,10.91,1.3,1.41,1.72,3.11.5,4.59a8.25,8.25,0,0,1-4.74,3c-2.14.4-4.31-.35-6.36-1.09-1.48-.53-4.44-1.58-4.82-3.4S172,229.17,172.13,227.21Z" transform="translate(-1.54 -41.05)" fill="url(#linear-gradient-2)"/><path d="M171.22,221.5s1,5.77,5.74,6.44a13.11,13.11,0,0,0,7.53-.82l.18-7Z" transform="translate(-1.54 -41.05)" fill="url(#linear-gradient-3)"/><path d="M160.51,443.36c.63,9.73,1.22,17.77,2.31,22,.69,2.64,2.44,5.4,5.13,5.87a5.54,5.54,0,0,0,5-2.15,13.53,13.53,0,0,0,2.34-5.16c2-7.31.55-44.41,3.82-59.48a4.13,4.13,0,0,0-.38-2.78,4.8,4.8,0,0,0-1.4-1.51c-4.49-3.44-19.51-6.24-21.25,1.76C155,406.8,160.12,437.41,160.51,443.36Z" transform="translate(-1.54 -41.05)" fill="url(#linear-gradient-4)"/><path d="M202.75,465.35c-.92,2.57-2.44,5.4-5.13,5.87a5.54,5.54,0,0,1-5-2.15,13.53,13.53,0,0,1-2.34-5.16c-2-7.31-2.27-15-2.53-22.54l-1.3-36.94a5.57,5.57,0,0,1,.39-2.78,4.8,4.8,0,0,1,1.4-1.51c4.49-3.44,16.56-7.39,18.3.61C207.59,405.65,206,456.17,202.75,465.35Z" transform="translate(-1.54 -41.05)" fill="url(#linear-gradient-5)"/><path d="M163.37,231.59c-3.63,1.93-6.85,4-9.2,7.36a47,47,0,0,0-4.63,9.07c-12.74,30.84-19.23,64.68-37.86,92.37a25.35,25.35,0,0,0-4.47,13.16c-.1,2.08.08,4.64,2,5.54a4.75,4.75,0,0,0,3.83-.34,18.13,18.13,0,0,0,10-11.25,9.74,9.74,0,0,1,1-2.61c.37-.57.89-1,1.3-1.59,1.73-2.26,1.47-5.39,1.81-8.22.45-3.71,2-7.17,3.61-10.56q9.63-20.65,19.81-41a114.7,114.7,0,0,0,6.56-14.74c1.36-4.05,2.25-8.24,3.4-12.36C164.44,242.09,167.74,232.12,163.37,231.59Z" transform="translate(-1.54 -41.05)" fill="url(#linear-gradient-6)"/><path d="M191.21,228.92s21.89,6.52,28.22,24.54,25.81,80.83,25.81,80.83,10.54,11.08,10.14,14.55-.54,10.65-5.59,8.94-14.17-7.91-14.9-12.66a75.8,75.8,0,0,1-.37-12.05l-25.65-61.72-9-11.32S186.24,234.7,191.21,228.92Z" transform="translate(-1.54 -41.05)" fill="url(#linear-gradient-7)"/><path d="M278.64,470.65c-.11,2-.25,4.09.69,5.84a5.19,5.19,0,0,0,8.92.4,10,10,0,0,0,1.25-3.68,156.35,156.35,0,0,0,2.69-22.1c.1-2.06,0-4.48-1.68-5.69a6.42,6.42,0,0,0-4-.79c-2.15.05-5,0-6.88,1.25-2.31,1.52-1.4,3.28-1.2,5.82A134.67,134.67,0,0,1,278.64,470.65Z" transform="translate(-1.54 -41.05)" fill="url(#linear-gradient-8)"/><path d="M300.91,469.66c.12,2,.23,4.09,1.37,5.72a5.21,5.21,0,0,0,8.91-.67,10.18,10.18,0,0,0,.8-3.8,154.56,154.56,0,0,0,0-22.26c-.14-2.06-.53-4.45-2.34-5.46a6.45,6.45,0,0,0-4-.3c-2.13.3-5,.61-6.69,2.06-2.12,1.78-1,3.42-.5,5.91A135.27,135.27,0,0,1,300.91,469.66Z" transform="translate(-1.54 -41.05)" fill="url(#linear-gradient-9)"/><path d="M316,381.8c2.8,5.54,4.39,11.61,6.89,17.29,1.33,3,2.93,6,3.19,9.25s-1.29,7-4.42,8a5.54,5.54,0,0,1-6.74-3.68,19.81,19.81,0,0,1-.23-4.43c-.14-3.56-1.9-6.81-3.4-10-3.4-7.34-7.11-16.53-8-24.64-.58-5.42,4-2.5,6.34-.36A29.24,29.24,0,0,1,316,381.8Z" transform="translate(-1.54 -41.05)" fill="url(#linear-gradient-10)"/><path d="M292,325.69a18.31,18.31,0,0,0-8.9,9.91c-1.26,3.58-1.25,7.45-1.77,11.21a39.28,39.28,0,0,1-2.45,9.21c-1.09,2.73-2.52,5.52-2.17,8.44a10.1,10.1,0,0,0,2.78,5.45c4.68,5.1,12.38,6.77,19.12,5.17a10.89,10.89,0,0,0,4.33-1.9c2.3-1.84,3.21-4.91,3.56-7.83s.31-5.92,1.25-8.71a29.31,29.31,0,0,1,2.85-5.54,96,96,0,0,0,4.51-8.58,14.24,14.24,0,0,0,1.22-3.4,9.3,9.3,0,0,0-3.92-9c-1.65-1.18-3.6-1.86-5.33-2.91-1.15-.7-2.2-1.56-3.39-2.19C300.3,323.26,295.19,324,292,325.69Z" transform="translate(-1.54 -41.05)" fill="#606161"/><path d="M347,333.93a1.61,1.61,0,0,0-.6,1.39,2.89,2.89,0,0,0,.56,1.46,5,5,0,0,0,2.39,1.86,1.1,1.1,0,0,0,1.06,0,1,1,0,0,0,.29-.6,3.66,3.66,0,0,0-.27-2C350,334.83,348.56,332.83,347,333.93Z" transform="translate(-1.54 -41.05)" fill="url(#linear-gradient-11)"/><path d="M376.19,330.41a1.67,1.67,0,0,1,1.51-.57,1.37,1.37,0,0,1,.86.91,3.44,3.44,0,0,1,.09,1.28,5.67,5.67,0,0,1-.79,2.89,7,7,0,0,1-1.56,1.47.84.84,0,0,1-.46.21c-.38,0-.56-.45-.61-.82C375,334,374.79,331.79,376.19,330.41Z" transform="translate(-1.54 -41.05)" fill="url(#linear-gradient-12)"/><path d="M347,442.08l-2.56,36.71s4.2,1.82,6.76.73,8.76-37.8,8.76-37.8Z" transform="translate(-1.54 -41.05)" fill="url(#linear-gradient-13)"/><path d="M385.72,440.07l2.55,36.71s-4.2,1.82-6.75.73-8.77-37.8-8.77-37.8Z" transform="translate(-1.54 -41.05)" fill="url(#linear-gradient-14)"/><path d="M344.93,416.48s-1.76,24.69-.48,26.15,16.62.37,16.62.37l5.11-12.42,5.11,13.69s15,0,15.71-1.09-.22-30.47-3.13-31.76S344.93,416.48,344.93,416.48Z" transform="translate(-1.54 -41.05)" fill="#606161"/><path d="M316.92,402.22a17.12,17.12,0,0,0-2.65,5.47,5.81,5.81,0,0,0,1.52,5.62,6.69,6.69,0,0,0,4.56,1.3c2,0,4.2-.64,5.13-2.4a13.8,13.8,0,0,0,.77-3.53c.71-3.39,3.71-5.72,6.15-8.19a31.27,31.27,0,0,0,4.16-5.22c1.78-2.81,3.14-6.19,2.34-9.41a6.44,6.44,0,0,0-4.65-4.61c-3.05-.61-4.25,2-5.88,4.16C324.25,390.8,320.58,396.51,316.92,402.22Z" transform="translate(-1.54 -41.05)" fill="url(#linear-gradient-15)"/><path d="M359.46,352.51c-5.14.45-10.56,1-14.71,4.09a23.05,23.05,0,0,0-5.92,7.19c-3.53,6.06-5.7,10.63-9,16.82-1.76,3.31,9.38,9.92,9.38,9.92a5.68,5.68,0,0,0,2.77-2.91c.7,9.1,1.61,17.56,2.31,26.66a3.88,3.88,0,0,0,.63,2.2c.83,1,2.39.92,3.69.74L381,412.57a3.29,3.29,0,0,0,3.54-4l.39-25a20.57,20.57,0,0,1,.74-6.16,18.06,18.06,0,0,1,3.11-5.21c2.23-2.88,3.37-.52,5.92-3.12a2.89,2.89,0,0,0,1-1.72,2.79,2.79,0,0,0-.83-1.75c-3.23-4-1.95-10.9-5.19-14.91C381.92,354.65,368.17,351.76,359.46,352.51Z" transform="translate(-1.54 -41.05)" fill="#fd9268"/><path d="M358.68,351.85c-.36,2.28-.28,5,1.5,6.43a6.09,6.09,0,0,0,2.46,1.1,7.29,7.29,0,0,0,2,.25c2.47-.12,4.49-2.22,5.3-4.56a18.88,18.88,0,0,0,.51-7.35,9.73,9.73,0,0,0-.77-3.82A5.79,5.79,0,0,0,364.1,341C357.59,341.57,359.41,347.18,358.68,351.85Z" transform="translate(-1.54 -41.05)" fill="url(#linear-gradient-16)"/><path d="M457.89,335.94c-2.41,7.51-3,15.47-3.55,23.33q-3.07,44.37-5,88.81c-.46,10.47,1.67,24.25-7.46,31.73-2.52,2.06-5.64,3.49-7.52,6.15a2.17,2.17,0,0,0-.49,1.17c0,1.29,1.7,1.72,3,1.73q7.44,0,14.89-.14c2.25-.05,4.83-.28,6.18-2.08,1.15-1.54,1-3.64,1.15-5.54.43-4.84,4.45-9.37,5.55-14.11,15.79-67.94,17.73-84,24.43-96.3,2.87,6,6,20.74,6.57,27.39,1.34,15.28,4.13,27,4.89,42.36.36,7.39-.07,15,.72,22.35s3.09,15.07,5.33,22.2a3.43,3.43,0,0,0,3.81,3,133,133,0,0,0,19.35.25,5.22,5.22,0,0,0,2.51-.59c1.59-1,1.59-3.48.59-5.08s-2.69-2.62-4.18-3.8a21.89,21.89,0,0,1-7.92-18.91,98.72,98.72,0,0,0,.61-11.84c-.11-4.91-.09-9.83,0-14.75.39-19.68,2-39.33,1.81-59a200.24,200.24,0,0,0-3.37-36.16c-.34-1.71-.79-3.55-2.17-4.62s-3.08-1.06-4.73-1.06l-37.64,0C468.94,332.42,463,332.28,457.89,335.94Z" transform="translate(-1.54 -41.05)" fill="#606161"/><path d="M435.44,277.58l6.38-20.39c2.22-7.1,4.55-14.4,9.3-20.13,7.21-8.68,18.7-12.29,29.52-15.48a19.08,19.08,0,0,1,7.77-.64c9,1.14,20.81-1.38,29.71,3.7,5.13,2.93,8.63,8,11.7,13a189.38,189.38,0,0,1,27.41,103.1c-.05,1.8-.23,3.83-1.64,4.94a6.3,6.3,0,0,1-2.5,1c-2.05.5-5.65-.82-8.77-1.58a6.38,6.38,0,0,1-4.82-5.75c-.58-8.3.32-14.64-1.42-23.88-2.69-14.31-6-29.11-15-40.53l1,44.57c.08,3.64.15,7.37-1,10.83-2,6.22-7.74,10.72-14,12.75s-12.93,1.91-19.45,1.36a151.52,151.52,0,0,1-19.65-3c-5.28-1.15-11-2.89-14-7.35-2.32-3.37-2.68-7.69-2.67-11.78A81,81,0,0,1,456,302.25c2.57-9.84,6.85-20.9,1.48-29.54-6.21,9-8.61,20-9.64,30.91-.57,6.07-7.15,25.59-14.85,26.48A11.44,11.44,0,0,1,422.67,326c-3.71-4.83-1.82-10.62.05-15.75C427.5,297.17,431.29,290.86,435.44,277.58Z" transform="translate(-1.54 -41.05)" fill="#fd9268"/><path d="M501.58,231.94a18.22,18.22,0,0,1-3.94,5.61,5.25,5.25,0,0,1-4.83,1.71c-5-.42-9.34-4-12-8.3a7.37,7.37,0,0,1-.94-2,8.83,8.83,0,0,1,.58-4.15,40.36,40.36,0,0,0,1-8.3v0c0-.41-.05-.88-.05-1.4-.1-1.45-.15-3.06.62-4.2,1.92-3.12,8.1-3.48,11.16-2.8a8.37,8.37,0,0,1,5.71,3.78,7.67,7.67,0,0,1,.77,3.22,35.78,35.78,0,0,1,0,4.15,13.33,13.33,0,0,0,1.4,6.8,11,11,0,0,1,.63,1.09,2.83,2.83,0,0,1,.41.88A6,6,0,0,1,501.58,231.94Z" transform="translate(-1.54 -41.05)" fill="url(#linear-gradient-17)"/><path d="M501.74,227.27s-4.57,2-12.3.52c-6.07-1.19-7.57-8.19-7.94-11.31v0a13.77,13.77,0,0,1-.1-1.4h18.31a35.78,35.78,0,0,1,0,4.15,13.33,13.33,0,0,0,1.4,6.8,11,11,0,0,1,.63,1.09Z" transform="translate(-1.54 -41.05)" fill="url(#linear-gradient-18)"/><path d="M470.74,195c.8,6.17,2.51,12.41,6.38,17.28s10.22,8.11,16.33,6.93a25,25,0,0,0,5.22-1.81,9,9,0,0,0,2.67-1.55,9.3,9.3,0,0,0,1.88-3.09,53.24,53.24,0,0,0,2.84-7.38,51,51,0,0,0,1.41-9.37,38.49,38.49,0,0,0,0-9.29,20.38,20.38,0,0,0-6.12-11.5,7.33,7.33,0,0,0-2-1.46,8.91,8.91,0,0,0-3.08-.58,45.84,45.84,0,0,0-9.8.1,17.48,17.48,0,0,0-8.92,3.8,19.72,19.72,0,0,0-5.27,8.57c-.53,1.51-1,3-1.54,4.53S470.53,193.41,470.74,195Z" transform="translate(-1.54 -41.05)" fill="url(#linear-gradient-19)"/><path d="M467.25,177.18a19.29,19.29,0,0,1,.34-4.23,2.3,2.3,0,0,1,.89-1.56,4.74,4.74,0,0,1,1-.34c1.71-.51,2.73-2.19,3.77-3.64a22.78,22.78,0,0,1,32.59-4.47,12.38,12.38,0,0,1,3,3.19c.91,1.48,1.36,3.22,2.38,4.63,1.16,1.61,3,2.67,4.11,4.31,1.63,2.39,1.49,5.61.56,8.35s-2.52,5.19-3.7,7.83-2.29,5.8-5,6.71a4.24,4.24,0,0,1-.16-2.32,43,43,0,0,0-.44-12.14,1.57,1.57,0,0,0-.4-.94,1.55,1.55,0,0,0-1-.24c-2.15,0-4.28.37-6.43.3-5-.16-9.69-2.53-14.64-3.34a9.2,9.2,0,0,0-6,.65,10.21,10.21,0,0,0-3.35,3.67,16.12,16.12,0,0,0-2.68,6.47,24.68,24.68,0,0,1-.32,3c-.6,2.44-1.77,1.47-2.48-.26a23.78,23.78,0,0,1-1.39-5.1A61.58,61.58,0,0,1,467.25,177.18Z" transform="translate(-1.54 -41.05)" fill="#606161"/><path d="M544.09,365.24a3.92,3.92,0,0,0,.88,1.66,3.36,3.36,0,0,0,3,.54,11.53,11.53,0,0,0,6.44-4.16,22.73,22.73,0,0,0,3.62-6.89,14.41,14.41,0,0,0,1.05-5.36,12.19,12.19,0,0,0-1.17-4.46c-1.38-3.08-3.72-5.95-6.94-7a8.3,8.3,0,0,0-10.13,6C539.5,352.12,542,359.17,544.09,365.24Z" transform="translate(-1.54 -41.05)" fill="url(#linear-gradient-20)"/><path d="M351.33,342.11a16.54,16.54,0,0,0,3.31,5.41,10.56,10.56,0,0,0,7.74,3.08c4.61-.14,8.71-3.41,10.93-7.45s2.86-8.77,3.06-13.38a20.76,20.76,0,0,0-.81-7.93,13.36,13.36,0,0,0-9.72-8.19,16.84,16.84,0,0,0-12.65,2.67,10.85,10.85,0,0,0-3.12,3,14.85,14.85,0,0,0-1.8,6.2,11.55,11.55,0,0,0-.18,4.3c.3,1.17.57,2.25.76,3.46A38.23,38.23,0,0,0,351.33,342.11Z" transform="translate(-1.54 -41.05)" fill="url(#linear-gradient-21)"/><path d="M343.69,327a20.64,20.64,0,0,1-2.73-8.88c0-1.16.14-2.53,1.15-3.11a7.82,7.82,0,0,1,1.17-.44,8.44,8.44,0,0,0,2.61-2.17,24.23,24.23,0,0,1,6.11-4,13.81,13.81,0,0,1,3.46-1.4,13.36,13.36,0,0,1,3-.12c3.89.15,8.08.57,11,3.14.43.38.83.81,1.3,1.15,1.46,1.06,3.46,1.23,4.83,2.41a6.16,6.16,0,0,1,1.51,2.15,13.73,13.73,0,0,1,1.14,8,28.66,28.66,0,0,1-.85,3.37l-1.1,3.72q-2.31-5.76-4.93-11.38a29.17,29.17,0,0,1-6.86,1.69c-2.7.21-5.52-.33-8.08.56a14,14,0,0,0-4.75,3.29,8.07,8.07,0,0,0-1.63,1.92c-1.27,2.32,0,5.18-1.12,7.46-1-.27-2.14-2.57-2.74-3.42A42.78,42.78,0,0,1,343.69,327Z" transform="translate(-1.54 -41.05)" fill="#606161"/><path d="M402,346s-9.31,4.93-12.42,5.84-.25,15.1,2.56,14.42,21.73-15,23.19-15.88,4.38-2.92,4.38-2.92,4.57.36,8.77-5.66-.19-12.06-.92-12.24-3.59-2.74-5.41-2.13-6.58,6.94-6.58,6.94S408.36,344.15,402,346Z" transform="translate(-1.54 -41.05)" fill="url(#linear-gradient-22)"/><path d="M418.13,338.94c.08,1.92.29,3.95,1.47,5.45a4.92,4.92,0,0,0,7.95-.24c1.12-1.62,1.18-3.75,2.08-5.5s2.77-3.17,3.54-5.1c1.95-4.81-3.86-10.69-8.62-8.76C418.93,327.07,417.91,333.68,418.13,338.94Z" transform="translate(-1.54 -41.05)" fill="url(#linear-gradient-23)"/><path d="M346.17,475a9,9,0,0,0-2.32.09,5.42,5.42,0,0,0-1.52.81l-5.54,3.79c-.82.56-1.73,1.28-1.73,2.27a2,2,0,0,0,.44,1.21c1.1,1.42,3.2,1.45,5,1.35l8.21-.48a3.08,3.08,0,0,0,3.26-1.9c1-1.7,2.86-4.36,1.52-6.3C351.86,473.51,348.37,475,346.17,475Z" transform="translate(-1.54 -41.05)" fill="#606161"/><path d="M385.8,475a9.05,9.05,0,0,1,2.33.09,5.71,5.71,0,0,1,1.52.81l5.54,3.79c.82.56,1.72,1.28,1.73,2.27a2,2,0,0,1-.45,1.21c-1.09,1.42-3.19,1.45-5,1.35l-8.21-.48a3.07,3.07,0,0,1-3.25-1.9c-1-1.7-2.87-4.36-1.53-6.3C380.11,473.51,383.6,475,385.8,475Z" transform="translate(-1.54 -41.05)" fill="#606161"/><path d="M278.66,384.08a48.31,48.31,0,0,1-2,7.25c-2.81,8.6-5.62,17.2-8.51,25.77a235.33,235.33,0,0,1-9.86,25.61c10.53,4.89,21.8,9.84,33.32,8.33,4.06-.53,8-1.87,12.07-2.39s8.42-.19,12.62-.54,8.55-1.5,11.55-4.45l-6.08-11.88c-2.22-4.34-4.44-8.69-6.25-13.22A78.62,78.62,0,0,1,310,391.44c-.12-4.81.2-9.69-.81-14.4a11.23,11.23,0,0,0-3-6.06c-2.13-2-5.2-2.46-8.08-2.74-4.16-.4-13.19-2.26-16.85.41S279.33,380.12,278.66,384.08Z" transform="translate(-1.54 -41.05)" fill="#fd9268"/><path d="M285.12,347.56a1.43,1.43,0,0,0-.69,1.17,2.71,2.71,0,0,0,.34,1.35,4.55,4.55,0,0,0,1.91,1.9,1,1,0,0,0,.94.09.87.87,0,0,0,.32-.49,3.28,3.28,0,0,0,0-1.81C287.63,348.67,286.61,346.76,285.12,347.56Z" transform="translate(-1.54 -41.05)" fill="url(#linear-gradient-24)"/><path d="M311.28,347.62a1.45,1.45,0,0,1,1.4-.34,1.19,1.19,0,0,1,.65.89,3,3,0,0,1-.05,1.15,5.08,5.08,0,0,1-1,2.46,5.89,5.89,0,0,1-1.53,1.13.7.7,0,0,1-.44.14c-.33,0-.43-.46-.44-.79C309.81,350.63,309.89,348.68,311.28,347.62Z" transform="translate(-1.54 -41.05)" fill="url(#linear-gradient-25)"/><path d="M291.41,364.76c-.32,2-.25,4.42,1.34,5.72a5.57,5.57,0,0,0,2.19,1,6.48,6.48,0,0,0,1.8.22c2.2-.1,4-2,4.73-4.05a16.76,16.76,0,0,0,.45-6.55,8.72,8.72,0,0,0-.69-3.4,5.16,5.16,0,0,0-5-2.55C290.44,355.6,292.07,360.59,291.41,364.76Z" transform="translate(-1.54 -41.05)" fill="url(#linear-gradient-26)"/><path d="M296.73,366.15a5.82,5.82,0,0,0,2.27.55,2.89,2.89,0,0,0,2.12-.86,4.22,4.22,0,0,0,.74-3,2.72,2.72,0,0,0-.19-1.1,2.21,2.21,0,0,0-1.13-1,8.23,8.23,0,0,0-3.27-.61,23.72,23.72,0,0,0-3.86.19c-1.36.17-2.07.26-1.34,1.69A9.14,9.14,0,0,0,296.73,366.15Z" transform="translate(-1.54 -41.05)" fill="url(#linear-gradient-27)"/><path d="M288,355.26a14.69,14.69,0,0,0,2.34,5.13,9.39,9.39,0,0,0,6.51,3.57c4.09.38,8.06-2.07,10.47-5.4s3.47-7.44,4.15-11.49a18.41,18.41,0,0,0,.14-7.09,11.84,11.84,0,0,0-7.7-8.29,14.91,14.91,0,0,0-11.46,1A9.5,9.5,0,0,0,289.4,335a13.34,13.34,0,0,0-2.26,5.28,10.21,10.21,0,0,0-.62,3.78c.13,1.06.26,2,.29,3.14A34.5,34.5,0,0,0,288,355.26Z" transform="translate(-1.54 -41.05)" fill="url(#linear-gradient-28)"/><path d="M285.61,345.79a3.7,3.7,0,0,0,1.63,2.62,4.29,4.29,0,0,0,1.67.33,11.78,11.78,0,0,0,4.88-.42,4,4,0,0,0,2.78-3.69c-.16.89-.19,2.05.63,2.42a2,2,0,0,0,.77.14l3.6.16a8.62,8.62,0,0,0,3-.22,3,3,0,0,0,2.09-2c.66,1.06,2.07,1.35,3.32,1.42a3.82,3.82,0,0,0,1.9-.26c1.18-.6,1.5-2.11,1.68-3.42a12.47,12.47,0,0,0-.1-5.67,11.08,11.08,0,0,0-3.53-4.57,15.33,15.33,0,0,0-4.09-2.78,14.66,14.66,0,0,0-6.18-.85,34.89,34.89,0,0,0-6.89.91,11.47,11.47,0,0,0-5.62,2.71c-1.77,1.79-1.46,3.5-1.45,5.75C285.74,340.92,285,343.15,285.61,345.79Z" transform="translate(-1.54 -41.05)" fill="#606161"/><path d="M266.76,360.85c-3.7-4.11-6.92-8.75-11.38-12a5.75,5.75,0,0,0-3.19-1.37c-2.13-.05-3.82,2.08-4,4.2s.68,4.2,1.63,6.11a68.68,68.68,0,0,0,25,27.45,4.56,4.56,0,0,0,2.49.92c1.79-.06,2.87-2,3.38-3.7a22.29,22.29,0,0,0,.8-8.24c-.3-3.33-.37-4.18-3.21-5.25A28.7,28.7,0,0,1,266.76,360.85Z" transform="translate(-1.54 -41.05)" fill="url(#linear-gradient-29)"/><path d="M276.42,474.68A52.35,52.35,0,0,0,272,478.4c-.67.56-1.42,1.21-1.42,2.08a1.9,1.9,0,0,0,1.07,1.58,5.13,5.13,0,0,0,1.93.48,38.33,38.33,0,0,0,9.51-.23,10,10,0,0,0,2.53-.64,7.11,7.11,0,0,0,3.37-3.53C292.68,470.25,280.32,472.07,276.42,474.68Z" transform="translate(-1.54 -41.05)" fill="#606161"/><path d="M313,474.68a54.11,54.11,0,0,1,4.45,3.72c.66.56,1.41,1.21,1.41,2.08a1.88,1.88,0,0,1-1.07,1.58,5.08,5.08,0,0,1-1.93.48,38.33,38.33,0,0,1-9.51-.23,10,10,0,0,1-2.53-.64,7.15,7.15,0,0,1-3.37-3.53C296.75,470.25,309.11,472.07,313,474.68Z" transform="translate(-1.54 -41.05)" fill="#606161"/><path d="M163.37,231.59a37.23,37.23,0,0,1-3,20.19,70.75,70.75,0,0,0-3.52,7.81c-3.6,11.48,4.68,24,1.85,35.67-8,32.87-22.88,64.27-24.07,98.07a4.2,4.2,0,0,0,.43,2.46,4.39,4.39,0,0,0,2.68,1.5c21,5.73,43,11.26,64.18,6.5,9.52-2.14,18.46-6.28,27.31-10.39,2-.94,4.24-2.09,5-4.2a8.28,8.28,0,0,0,.12-3.61c-1.35-11.53-3.31-23.08-7.47-33.92-4.41-11.48-11.18-21.87-16.57-32.92s-9.46-23.31-7.83-35.5c1.08-8.09,4.56-16.61,1.19-24-1.16-2.55-3-4.69-4.6-7a32.67,32.67,0,0,1-5.49-16.12c-.17-2.6-.23-5.66-2.36-7.17-2.65-1.86-6.24.13-8.72,2.21s-5.63,4.45-8.62,3.22c-1.55-.64-2.56-2.12-3.83-3.22S164.67,230.52,163.37,231.59Z" transform="translate(-1.54 -41.05)" fill="#fd9268"/><path d="M162.36,464.15l-.52.75" transform="translate(-1.54 -41.05)" fill="none"/><path d="M164.86,465.14a2.3,2.3,0,0,0-1.7-.11c-.62.31-.78,1.09-.95,1.75a14.28,14.28,0,0,1-6.1,8,29.55,29.55,0,0,0-3.83,2.73,5.2,5.2,0,0,0-1.83,4.16.89.89,0,0,0,.15.45.93.93,0,0,0,.65.23,104.62,104.62,0,0,0,11.88.07c4-.13,8.21-.33,11.58-2.49a3.36,3.36,0,0,0,1-.93,4,4,0,0,0,.44-2.26l0-6.82c0-1.19.65-4.94-.52-5.58s-3.67,1.1-4.77,1.28A13.64,13.64,0,0,1,164.86,465.14Z" transform="translate(-1.54 -41.05)" fill="#606161"/><path d="M192.27,462.66c3.09.95,6.58,1.42,9.43-.09.62-.33,1.37-.76,2-.41a1.53,1.53,0,0,1,.57.71c1,2,.59,4.36,1.34,6.43.87,2.39,3.08,4,5.24,5.35a7.46,7.46,0,0,1,2.23,1.79,2.38,2.38,0,0,1,.22,2.68,3.43,3.43,0,0,1-2.73,1.07,121,121,0,0,1-15.35.16,4.88,4.88,0,0,1-1.89-.35c-.6-.28-1.07-.79-1.65-1.11a13.16,13.16,0,0,1-1.73-.84,4.07,4.07,0,0,1-1.26-2.13,24.51,24.51,0,0,1-1-9.89C188.05,462.73,188.89,461.6,192.27,462.66Z" transform="translate(-1.54 -41.05)" fill="#606161"/><path d="M180.05,184.42s7.15,1.05,8.21,7.57,2.52,29-6.32,32-17.26-7.37-18.94-11.58S155.63,181.26,180.05,184.42Z" transform="translate(-1.54 -41.05)" fill="url(#linear-gradient-30)"/><path d="M159.8,203c.48-1.89,2.6-2.77,4.44-3.45a23.2,23.2,0,0,0,7.58-4.17,10.16,10.16,0,0,0,3.64-7.61,5.83,5.83,0,0,0,3.33,3.83c1.56.8,3.28,1.25,4.81,2.11a10.17,10.17,0,0,1,4.2,4.62,2,2,0,0,0,.75,1.05c.82.43,1.68-.54,2-1.41a10.8,10.8,0,0,0-1-8.32,32,32,0,0,0-5.23-6.79,15.15,15.15,0,0,0-3.46-3,10.77,10.77,0,0,0-7.06-.92,18.6,18.6,0,0,0-15.3,21.66" transform="translate(-1.54 -41.05)" fill="#606161"/><path d="M274.93,177.61s7.68-25.11,27.55-22,23.24,18.23,23.24,18.23,10.61-27.72,38.27-17.38c32.43,12.12,6.7,49.91,3.51,52.44s-45.11,42.41-45.11,42.41-44-44.1-46.46-48.68S270.94,189.48,274.93,177.61Z" transform="translate(-1.54 -41.05)" fill="#fd9268" opacity="0.24" style="isolation:isolate"/></svg>