<svg height="512" viewBox="0 0 512 512" width="512" xmlns="http://www.w3.org/2000/svg"><g id="flat"><path d="m296 341.859 147.7 73.853a60 60 0 0 1 32.612 45.488l3.688 26.8h-448l3.688-26.8a60 60 0 0 1 32.612-45.488l147.7-73.853z" fill="#683b0d"/><path d="m192 344h128v144h-128z" fill="#026ca2"/><path d="m152 190v-63.479a102.521 102.521 0 0 1 35.01-77.155 102.521 102.521 0 0 1 67.511-25.366h2.958a102.521 102.521 0 0 1 67.511 25.366 102.521 102.521 0 0 1 35.01 77.155v62.479z" fill="#027e2a"/><path d="m200 41v107a8 8 0 0 1 -16 0v-95.88c.98-.94 1.99-1.86 3.01-2.75a102.085 102.085 0 0 1 12.9-9.61 8.417 8.417 0 0 1 .09 1.24z" fill="#027e2a"/><path d="m232 26.51v86.49a8 8 0 0 1 -16 0v-81.49q1.23-.5 2.46-.96a100.824 100.824 0 0 1 13.54-4.04z" fill="#027e2a"/><path d="m265.04 24.29-1.04 71.83a8 8 0 0 1 -8 7.88h-.12a8.012 8.012 0 0 1 -7.88-8.12l1.04-71.72c1.82-.11 3.65-.16 5.48-.16h2.96c2.53 0 5.05.09 7.56.29z" fill="#027e2a"/><path d="m297.09 31.97v78.03a8 8 0 0 1 -16 0v-83.24a101 101 0 0 1 16 5.21z" fill="#027e2a"/><path d="m329.09 53.16v95.84a8 8 0 0 1 -16 0v-108.6a102.679 102.679 0 0 1 11.9 8.97c1.41 1.23 2.77 2.49 4.1 3.79z" fill="#027e2a"/><path d="m232 26.51v86.49a8 8 0 0 1 -16 0v-81.49q1.23-.5 2.46-.96a100.824 100.824 0 0 1 13.54-4.04z" fill="#026a23"/><path d="m200 41v107a8 8 0 0 1 -16 0v-95.88c.98-.94 1.99-1.86 3.01-2.75a102.085 102.085 0 0 1 12.9-9.61 8.417 8.417 0 0 1 .09 1.24z" fill="#026a23"/><path d="m265.04 24.29-1.04 71.83a8 8 0 0 1 -8 7.88h-.12a8.012 8.012 0 0 1 -7.88-8.12l1.04-71.72c1.82-.11 3.65-.16 5.48-.16h2.96c2.53 0 5.05.09 7.56.29z" fill="#026a23"/><path d="m297.09 31.97v78.03a8 8 0 0 1 -16 0v-83.24a101 101 0 0 1 16 5.21z" fill="#026a23"/><path d="m329.09 53.16v95.84a8 8 0 0 1 -16 0v-108.6a102.679 102.679 0 0 1 11.9 8.97c1.41 1.23 2.77 2.49 4.1 3.79z" fill="#026a23"/><path d="m248 216v11.122a12.878 12.878 0 0 0 12.878 12.878" fill="none" stroke="#000" stroke-linecap="round" stroke-linejoin="round" stroke-width="16"/><path d="m256 328a70.9 70.9 0 0 1 -65.827-44.567 198.156 198.156 0 0 1 -14.173-73.596v-33.837l7.595-25.315a76.734 76.734 0 0 1 73.498-54.685 76.733 76.733 0 0 1 75.244 61.686l3.663 18.314v33.837a198.156 198.156 0 0 1 -14.173 73.6 70.9 70.9 0 0 1 -65.827 44.563z" fill="#f6bb92"/><path d="m304 192a8.015 8.015 0 0 1 -2.531-.412l-24-8a8 8 0 1 1 5.06-15.18l24 8a8 8 0 0 1 -2.529 15.592z" fill="#683b0d"/><circle cx="290" cy="202" fill="#683b0d" r="10"/><path d="m208 192a8 8 0 0 1 -2.529-15.592l24-8a8 8 0 0 1 5.06 15.18l-24 8a8.019 8.019 0 0 1 -2.531.412z" fill="#683b0d"/><circle cx="222" cy="202" fill="#683b0d" r="10"/><path d="m264 280h-16a8 8 0 0 1 0-16h16a8 8 0 0 1 0 16z" fill="#e6af89"/><path d="m176 176h-11.056a20.944 20.944 0 0 0 -20.944 20.944v14.112a20.944 20.944 0 0 0 2.211 9.366 20.944 20.944 0 0 0 18.733 11.578h15.056z" fill="#f6bb92"/><path d="m336 176h11.056a20.944 20.944 0 0 1 20.944 20.944v14.112a20.944 20.944 0 0 1 -2.211 9.366 20.944 20.944 0 0 1 -18.733 11.578h-15.056z" fill="#f6bb92"/><path d="m72 488v-34.141a8 8 0 1 1 16 0v34.141z" fill="#55300b"/><path d="m424 488v-34.141a8 8 0 1 1 16 0v34.141z" fill="#55300b"/><g fill="#683b0d"><path d="m216 272a8 8 0 0 1 0-16 25.267 25.267 0 0 0 24-17.3l.41-1.229a8 8 0 0 1 15.18 5.056l-.41 1.232a41.248 41.248 0 0 1 -39.18 28.241z"/><path d="m296 272a41.246 41.246 0 0 1 -39.179-28.238l-.411-1.234a8 8 0 0 1 15.18-5.056l.41 1.228a25.267 25.267 0 0 0 24 17.3 8 8 0 0 1 0 16z"/><path d="m299.871 302.968a14.928 14.928 0 0 1 -17.9 8.44 15.2 15.2 0 0 1 -6.516-3.956l-.1-.1a27.364 27.364 0 0 0 -38.7 0 15.5 15.5 0 0 1 -7.646 4.314 14.914 14.914 0 0 1 -16.876-8.695l-20.133-46.971v95.978a64.757 64.757 0 0 0 35.8 57.92 63.069 63.069 0 0 0 56.408 0 64.756 64.756 0 0 0 35.792-57.919v-95.979z"/><path d="m232.12 411.85q-2.19-.885-4.32-1.95a64.284 64.284 0 0 1 -11.8-7.6v-26.3a8 8 0 0 1 16 0z"/><path d="m264 376v40.04a61.8 61.8 0 0 1 -16 0v-40.04a8 8 0 0 1 16 0z"/><path d="m296 376v26.3a64.284 64.284 0 0 1 -11.8 7.6c-1.38.69-2.78 1.33-4.2 1.9v-35.8a8 8 0 0 1 16 0z"/></g><path d="m192 344v144h-40l-40-64 24.412-39.06a90 90 0 0 1 42.895-35.863z" fill="#fbb540"/><path d="m320 344v144h40l40-64-24.412-39.06a90 90 0 0 0 -42.9-35.863z" fill="#fbb540"/><path d="m232.12 411.85q-2.19-.885-4.32-1.95a64.284 64.284 0 0 1 -11.8-7.6v-26.3a8 8 0 0 1 16 0z" fill="#55300b"/><path d="m264 376v40.04a61.8 61.8 0 0 1 -16 0v-40.04a8 8 0 0 1 16 0z" fill="#55300b"/><path d="m296 376v26.3a64.284 64.284 0 0 1 -11.8 7.6c-1.38.69-2.78 1.33-4.2 1.9v-35.8a8 8 0 0 1 16 0z" fill="#55300b"/><path d="m312.61 119.76c-.39.15-.61.24-.61.24l-24.06 6.87a107.346 107.346 0 0 1 -63.45-1.37l-16.49-5.5-4.73-1.97a76.751 76.751 0 0 1 109.34 1.73z" fill="#683b0d"/></g></svg>