<svg height="512" viewBox="0 0 512 512" width="512" xmlns="http://www.w3.org/2000/svg"><g id="flat"><path d="m296 344 126.786 73.4a60 60 0 0 1 29.334 43.44l3.88 27.16h-400l3.88-27.158a60 60 0 0 1 29.334-43.442l126.786-73.4z" fill="#d8595a"/><path d="m408 408-42.874 14.291a345.087 345.087 0 0 1 -109.126 17.709 345.087 345.087 0 0 1 -109.126-17.709l-42.874-14.291a263.153 263.153 0 0 0 40-139.472v-105.986a112 112 0 0 1 88.533-109.513 111.992 111.992 0 0 1 46.934 0c51.64 11.065 88.533 56.701 88.533 114.971v100.451a263.15 263.15 0 0 0 37.613 135.578z" fill="#fbb540"/><path d="m255.775 328a64.719 64.719 0 0 1 -57.74-35.485 209 209 0 0 1 -22.538-94.41v-38.105l19.59-13.627a106 106 0 0 1 121.576.36l18.837 13.267v39.218a209.02 209.02 0 0 1 -21.6 92.524l-.094.189a64.719 64.719 0 0 1 -58.031 36.069z" fill="#fdc9a6"/><g fill="#683b0d"><path d="m303.5 192a7.988 7.988 0 0 1 -2.531-.413l-24-8a8 8 0 1 1 5.06-15.178l24 8a8 8 0 0 1 -2.529 15.591z"/><circle cx="289.496" cy="202" r="11"/><path d="m208 192a8 8 0 0 1 -2.577-15.575l23.5-8a8 8 0 1 1 5.156 15.146l-23.5 8a7.985 7.985 0 0 1 -2.579.429z"/><circle cx="221.496" cy="202" r="11"/></g><path d="m256 279.985a30.531 30.531 0 0 1 -21.656-8.955 8 8 0 0 1 11.312-11.315 14.646 14.646 0 0 0 20.688 0 8 8 0 0 1 11.312 11.315 30.531 30.531 0 0 1 -21.656 8.955z" fill="#e6af89"/><path d="m264 248h-16a8 8 0 0 1 -8-8v-16a8 8 0 0 1 16 0v8h8a8 8 0 0 1 0 16z" fill="#e6af89"/><path d="m96 488v-32a8 8 0 0 1 16 0v32z" fill="#cf5252"/><path d="m400 488v-32a8 8 0 0 1 16 0v32z" fill="#cf5252"/><path d="m175.5 176h-11.06a20.944 20.944 0 0 0 -20.94 20.944v14.112a20.944 20.944 0 0 0 2.211 9.366 20.944 20.944 0 0 0 18.729 11.578h14.06z" fill="#fdc9a6"/><path d="m335.5 176h11.055a20.944 20.944 0 0 1 20.945 20.944v14.112a20.944 20.944 0 0 1 -2.211 9.366 20.944 20.944 0 0 1 -18.738 11.578h-15.051z" fill="#fdc9a6"/><path d="m254.32 369.019q-3.429 0-6.84-.081a80.894 80.894 0 0 1 -67.137-38.5l-3.15-5.1a8 8 0 0 1 13.614-8.406l3.149 5.1a64.951 64.951 0 0 0 53.9 30.908c5.352.127 10.771.1 16.112-.093l15.6-.838a8 8 0 0 1 .86 15.976l-15.673.843-.146.006c-3.409.124-6.852.185-10.289.185z" fill="#ea9d2d"/><path d="m257.676 399.881c-3.437 0-6.877-.061-10.288-.182l-.144-.007-15.673-.842a8 8 0 0 1 .858-15.976l15.6.837c5.341.189 10.762.22 16.114.094a64.949 64.949 0 0 0 53.9-30.909l3.149-5.1a8 8 0 1 1 13.614 8.406l-3.15 5.1a80.892 80.892 0 0 1 -67.137 38.5q-3.408.079-6.843.079z" fill="#ea9d2d"/><path d="m288.006 104a8 8 0 0 1 -1.946-.241 124.383 124.383 0 0 0 -60.12 0 8 8 0 1 1 -3.88-15.522 140.426 140.426 0 0 1 67.88 0 8 8 0 0 1 -1.934 15.763z" fill="#ea9d2d"/></g></svg>