<svg height="512" viewBox="0 0 512 512" width="512" xmlns="http://www.w3.org/2000/svg"><g id="flat"><g fill="#683b0d"><path d="m296 344 146.1 68.187a60 60 0 0 1 34.13 46.675l3.77 29.138h-448l3.768-29.138a60 60 0 0 1 34.132-46.675l146.1-68.187z"/><path d="m80 408v80h-48l3.77-29.14a59.987 59.987 0 0 1 34.13-46.67l8.35-3.9z"/><path d="m480 488h-48v-80l1.45.15 8.65 4.04a59.987 59.987 0 0 1 34.13 46.67z"/></g><path d="m152 181.671-11.406-19.96a77.56 77.56 0 0 1 -2.031-73.166 77.559 77.559 0 0 1 69.371-42.874h49.418a82.392 82.392 0 0 1 70.648 40 30.739 30.739 0 0 1 29.821 23.284l2.179 8.716a131.927 131.927 0 0 1 0 64z" fill="#fbb540"/><path d="m312 352-16-8v-40h-80v40l-16 8 56 11z" fill="#fdc9a6"/><path d="m80 408v80h-48l3.77-29.14a59.987 59.987 0 0 1 34.13-46.67l8.35-3.9z" fill="#96b4e7"/><path d="m480 488h-48v-80l1.45.15 8.65 4.04a59.987 59.987 0 0 1 34.13 46.67z" fill="#96b4e7"/><path d="m321.522 281.941-2.272 3.181a77.728 77.728 0 0 1 -63.25 32.549 77.728 77.728 0 0 1 -63.25-32.549l-2.272-3.181a77.73 77.73 0 0 1 -14.478-45.179v-103.091l40 24v-24l40 24v-24l40 24v-24a40.985 40.985 0 0 1 39.761 31.045l.239.955v71.091a77.73 77.73 0 0 1 -14.478 45.179z" fill="#fdc9a6"/><path d="m248 285.674a8 8 0 0 1 -2.529-15.592l24-8a8 8 0 0 1 5.06 15.18l-24 8a8.015 8.015 0 0 1 -2.531.412z" fill="#e6af89"/><path d="m264 248h-16a8 8 0 0 1 -8-8v-42.328a8 8 0 0 1 16 0v34.328h8a8 8 0 0 1 0 16z" fill="#e6af89"/><path d="m176 176h-11.056a20.944 20.944 0 0 0 -20.944 20.944v14.112a20.944 20.944 0 0 0 2.211 9.366 20.944 20.944 0 0 0 18.733 11.578h11.056z" fill="#fdc9a6"/><path d="m336 176h11.056a20.944 20.944 0 0 1 20.944 20.944v14.112a20.944 20.944 0 0 1 -2.211 9.366 20.944 20.944 0 0 1 -18.733 11.578h-11.056z" fill="#fdc9a6"/><path d="m288 368-24-8h-16l-24 8-8 16a77.748 77.748 0 0 0 80 0z" fill="#96b4e7"/><path d="m176 184h160v16h-160z" fill="#0296e5"/><circle cx="216" cy="197.671" fill="#fbfdff" r="32"/><circle cx="296" cy="197.671" fill="#fbfdff" r="32"/><path d="m192 320 56 40-24 8-20.685 42.706-35.315-50.706z" fill="#cbcbcb"/><path d="m320 320-56 40 24 8 20.44 40.919 35.56-48.919z" fill="#cbcbcb"/></g></svg>