<svg height="512" viewBox="0 0 512 512" width="512" xmlns="http://www.w3.org/2000/svg"><g id="flat"><path d="m296 344 126.786 73.4a60 60 0 0 1 29.334 43.44l3.88 27.16h-400l3.88-27.158a60 60 0 0 1 29.334-43.442l126.786-73.4z" fill="#d32b39"/><path d="m248 488v-96a8 8 0 0 1 16 0v96z" fill="#bf2734"/><circle cx="192" cy="255.964" fill="#533222" r="72"/><path d="m215.496 296v48l-8 24 48.504 24 47.496-24-8-24v-48z" fill="#fdc9a6"/><path d="m295.5 296v24.92a59.737 59.737 0 0 1 -39.69 15.06h-.06a59.742 59.742 0 0 1 -40.25-15.62v-24.36z" fill="#e6af89"/><path d="m352 184v-57.874a46.93 46.93 0 0 0 -1.573-12.047l-.434-1.629a46.9 46.9 0 0 0 -30.493-32.45 56.721 56.721 0 0 0 -51.05-32h-6.338a110.287 110.287 0 0 0 -94.312 53.109 110.287 110.287 0 0 0 -15.974 58.337l.174 32.554 104-8z" fill="#533222"/><path d="m255.814 319.984h-.059a59.753 59.753 0 0 1 -49.53-26.369 180.075 180.075 0 0 1 -30.725-100.588c0-13.93 0-25.027 0-25.027l22.69-5.628a84.066 84.066 0 0 0 57.81-50.372l.073.183a84.069 84.069 0 0 0 57.512 50.3l21.915 5.517v25.953a180.079 180.079 0 0 1 -29.761 99.162l-.012.018a59.754 59.754 0 0 1 -49.913 26.851z" fill="#fdc9a6"/><g fill="#533222"><path d="m303.489 192a7.963 7.963 0 0 1 -3.663-.893l-15.5-8a8 8 0 1 1 7.34-14.216l15.5 8a8 8 0 0 1 -3.677 15.109z"/><circle cx="289.496" cy="202" r="11"/><path d="m208.006 192a8 8 0 0 1 -3.584-15.157l16-8a8 8 0 1 1 7.156 14.31l-16 8a7.976 7.976 0 0 1 -3.572.847z"/><circle cx="221.496" cy="202" r="11"/></g><path d="m253.611 280h-5.611a8 8 0 0 1 0-16h5.611a20.864 20.864 0 0 0 13.285-4.788 8 8 0 0 1 10.204 12.321 36.9 36.9 0 0 1 -23.489 8.467z" fill="#e6af89"/><path d="m264 248h-16a8 8 0 0 1 -8-8v-16a8 8 0 0 1 16 0v8h8a8 8 0 0 1 0 16z" fill="#e6af89"/><path d="m96 488v-32a8 8 0 0 1 16 0v32z" fill="#bf2734"/><path d="m400 488v-32a8 8 0 0 1 16 0v32z" fill="#bf2734"/><path d="m175.5 176h-11.06a20.944 20.944 0 0 0 -20.94 20.944v14.112a20.944 20.944 0 0 0 2.211 9.366 20.944 20.944 0 0 0 18.729 11.578h19.56z" fill="#fdc9a6"/><path d="m335.5 176h11.055a20.944 20.944 0 0 1 20.945 20.944v14.112a20.944 20.944 0 0 1 -2.211 9.366 20.944 20.944 0 0 1 -18.738 11.578h-18.551z" fill="#fdc9a6"/><path d="m256 384-40-48-32 24 9.385 32.848a31.922 31.922 0 0 0 30.693 23.152 31.922 31.922 0 0 0 31.922-31.922z" fill="#eaeae8"/><path d="m256 384 40-48 32 24-9.385 32.848a31.922 31.922 0 0 1 -30.693 23.152 31.922 31.922 0 0 1 -31.922-31.922z" fill="#eaeae8"/><ellipse cx="165.794" cy="367.189" fill="#533222" rx="74.087" ry="63.603" transform="matrix(.209 -.978 .978 .209 -227.907 452.718)"/></g></svg>